<svg version="1.1" id="Layer_1" xmlns="http://www.w3.org/2000/svg" xmlns:xlink="http://www.w3.org/1999/xlink" x="0px" y="0px"
	 width="100%" viewBox="0 0 1024 576" enable-background="new 0 0 1024 576" xml:space="preserve">
<path fill="#000000" opacity="1.000000" stroke="none" 
	d="
M513.368530,512.322754 
	C509.883118,504.347107 514.028320,499.056122 519.288879,494.640289 
	C522.292419,492.119049 523.076965,489.496368 522.664124,485.952271 
	C521.599060,476.807953 518.732788,468.096863 516.396057,459.256317 
	C515.786743,456.951355 514.369263,456.036194 512.009155,456.149078 
	C509.016296,456.292236 506.013153,456.317688 503.016632,456.267029 
	C495.469849,456.139435 495.455872,456.218109 494.318634,463.725433 
	C492.645660,474.769318 492.327148,485.928009 491.358307,497.030121 
	C490.753143,503.965240 487.744171,508.830261 480.778778,510.396973 
	C457.337799,515.669556 433.761597,517.772095 410.080078,512.087158 
	C401.256226,509.968903 398.703186,502.082977 404.035065,494.663971 
	C405.805054,492.201172 407.861725,489.781403 410.483063,488.485565 
	C415.178772,486.164276 415.058289,482.667694 414.251617,478.428223 
	C412.759521,470.586578 409.900452,463.108490 408.655579,455.175873 
	C407.002045,444.638977 406.079620,434.034607 404.792084,423.465454 
	C404.593323,421.833649 404.516876,420.014923 403.736664,418.653503 
	C398.069855,408.764893 394.304321,398.140228 391.428925,386.874756 
	C387.943329,387.709290 384.804474,388.831909 381.583374,389.169067 
	C365.933197,390.807312 353.527588,378.798798 352.730469,361.690216 
	C351.986938,345.731750 355.755493,330.558777 361.084015,315.808594 
	C371.851501,286.002411 388.996246,259.480164 405.025635,232.405045 
	C408.332825,226.818787 411.759308,221.303116 415.134583,215.757187 
	C420.657288,206.682785 420.536560,196.314880 421.685242,186.295059 
	C423.956268,166.485489 423.117157,146.363647 427.791687,126.782959 
	C429.697357,118.800331 431.962860,110.936699 436.167969,103.885300 
	C438.158875,100.546776 437.866241,98.573517 435.275665,95.762474 
	C430.246765,90.305618 428.860046,83.781052 431.961182,76.793022 
	C434.954102,70.048897 439.954803,65.887688 447.612579,65.395233 
	C453.563690,65.012535 457.773621,68.324944 461.484375,72.198151 
	C463.854858,74.672432 465.799835,74.884056 468.899475,73.619102 
	C496.039093,62.543564 523.089783,63.050873 549.807434,75.043610 
	C553.065979,76.506271 554.898804,76.677254 557.416565,73.791679 
	C565.772522,64.215172 577.689575,63.503857 585.446228,71.766739 
	C593.986328,80.864220 593.129944,92.825127 583.250183,101.138214 
	C581.368713,102.721344 579.852783,103.873672 581.098816,106.869423 
	C589.761780,127.698952 592.777039,149.798065 595.311646,171.979050 
	C596.765198,184.699799 598.788513,197.316605 601.629456,209.801575 
	C602.947510,215.594070 606.214355,220.480072 609.000671,225.580200 
	C623.307068,251.766647 636.575500,278.401184 645.416321,307.043304 
	C651.290405,326.073730 655.153625,345.358398 654.329712,365.399933 
	C653.978821,373.935394 651.596069,381.871216 646.974487,388.955292 
	C641.424866,397.461853 633.306763,402.039093 623.094543,402.186462 
	C619.587097,402.237061 618.227234,403.480957 617.300232,406.763611 
	C609.565369,434.156036 605.892456,462.112671 605.209778,490.512177 
	C605.165771,492.342743 605.224915,494.194763 604.966431,495.998169 
	C602.824768,510.943420 600.899109,512.987854 582.020081,517.732727 
	C563.137756,522.478455 543.733704,522.276917 524.545593,518.158447 
	C520.430725,517.275269 516.536011,515.875671 513.368530,512.322754 
M384.536011,377.683990 
	C386.037201,375.985352 388.335999,374.995087 389.307129,372.251251 
	C383.988159,368.275269 385.513733,363.245941 387.790283,358.369293 
	C389.174957,355.403137 389.604004,352.432007 389.784912,349.225830 
	C390.084351,343.918549 390.651031,338.610046 391.421265,333.348328 
	C395.753723,303.752655 405.872314,275.571259 412.748871,246.595215 
	C413.093170,245.144455 413.472137,243.577225 415.562225,243.853867 
	C416.517792,246.926407 416.491486,246.919617 414.968597,252.817627 
	C407.195068,282.923523 396.788940,312.428192 393.758423,343.624908 
	C391.371368,368.197449 392.773956,392.228790 405.282745,414.412109 
	C407.199249,417.810852 408.055634,421.442230 408.383759,425.352844 
	C408.995209,432.640167 409.898987,439.908234 410.871368,447.158752 
	C412.378174,458.394073 415.424683,469.307617 418.067566,480.302948 
	C419.095428,484.579254 418.651123,488.120636 414.169556,490.411133 
	C411.370087,491.841888 408.848724,493.799438 407.033234,496.536285 
	C402.580109,503.249359 404.786530,507.833008 412.929596,508.646362 
	C415.450836,498.423889 415.450836,498.423889 419.560120,497.397949 
	C420.317749,499.679199 418.277191,501.026031 417.792877,502.817688 
	C417.107452,505.352997 415.658630,508.808228 418.648865,509.982788 
	C422.747437,511.592712 427.496460,512.002136 431.900391,511.255829 
	C434.915131,510.744934 433.721039,506.996338 434.879120,504.900146 
	C436.095551,502.698303 436.359833,499.527893 440.138824,499.483765 
	C440.449646,502.788361 438.391052,504.679352 437.830475,507.088196 
	C437.165955,509.943634 437.555481,511.737701 440.924469,511.714905 
	C454.111267,511.625671 467.193970,510.530273 479.988953,507.178955 
	C485.086700,505.843719 487.468170,502.343262 487.923401,496.971985 
	C488.975464,484.558167 488.220581,471.976349 491.218750,459.742310 
	C491.870514,457.082733 490.673218,455.765442 488.238983,455.851013 
	C483.195007,456.028259 478.621399,453.831543 472.898865,455.746948 
	C468.597900,457.186523 463.075745,451.955536 458.641327,448.374939 
	C460.795166,446.056244 462.387360,447.000946 463.917114,447.412384 
	C480.289764,451.815918 496.924286,453.807098 513.860291,452.532990 
	C517.120972,452.287659 518.388000,453.732910 519.095947,456.482178 
	C521.418152,465.499542 524.023193,474.427734 525.693848,483.628265 
	C526.800049,489.720215 525.822998,494.348541 520.641663,498.027374 
	C517.679382,500.130676 515.992676,503.239746 515.656128,506.924927 
	C515.280579,511.035583 518.257446,512.556396 521.368042,513.347168 
	C524.725952,514.200806 524.136658,510.971161 524.934570,509.170502 
	C526.052551,506.647522 525.996826,503.177338 529.778442,502.414703 
	C531.579041,505.233337 529.033630,506.943542 528.506958,509.017181 
	C527.107239,514.528015 527.489685,515.276184 533.140320,516.019043 
	C535.451172,516.322815 537.783752,516.483032 540.081116,516.862366 
	C543.684509,517.457397 545.491028,516.340820 546.180603,512.422729 
	C546.753906,509.165558 547.269043,505.192627 551.832092,503.893036 
	C552.848755,507.294098 550.261414,509.198761 549.699402,511.690857 
	C548.662720,516.288330 549.479248,517.913452 553.999207,517.583801 
	C565.104675,516.773865 576.285156,516.481201 587.027710,512.870178 
	C597.897400,509.216309 601.369812,505.090240 601.628479,493.664062 
	C602.294373,464.247131 605.726257,435.232422 613.939087,406.906677 
	C614.976929,403.327393 614.498840,401.477753 610.699707,400.196442 
	C603.318726,397.707123 597.923645,392.587799 593.754639,386.071869 
	C589.099670,378.796478 586.315918,370.809753 584.769897,362.393158 
	C579.453918,333.451538 576.348450,304.059479 567.031921,275.934235 
	C566.609924,274.660339 565.901794,273.013763 567.783447,271.998901 
	C570.000488,272.647400 570.112671,274.699493 570.656250,276.343872 
	C576.731750,294.720886 580.216248,313.676575 583.327271,332.729095 
	C585.788879,347.804443 586.854492,363.201355 592.977783,377.488403 
	C595.899780,384.306122 600.111389,390.078430 606.581970,394.424591 
	C607.801819,390.458771 605.150513,386.328796 608.529907,383.197815 
	C611.278259,384.719330 610.162231,387.156036 610.243286,389.118927 
	C610.568604,396.995880 612.110229,398.627167 620.050476,398.966644 
	C621.048401,399.009308 622.054077,398.914551 623.048462,398.987823 
	C627.678040,399.328949 629.171448,397.124268 628.939087,392.652893 
	C628.796448,389.909210 627.387085,386.816040 629.882507,383.931549 
	C633.987244,387.330841 630.954163,392.379364 632.968628,395.950714 
	C635.046753,396.194214 636.233704,394.901520 637.562988,393.965729 
	C644.696899,388.943756 648.159058,381.605286 649.715271,373.411469 
	C652.756958,357.396576 650.597900,341.563599 647.095581,325.880676 
	C639.910461,293.705872 625.960876,264.225861 610.733215,235.268890 
	C605.555908,225.423660 599.134033,216.181488 597.028320,204.903717 
	C594.369202,190.662018 592.565674,176.303726 590.725098,161.948502 
	C588.392029,143.752167 585.701477,125.599449 578.053955,108.740067 
	C575.924072,104.044746 576.119141,101.601624 580.564087,98.719292 
	C586.530029,94.850624 589.086365,88.780869 587.386780,81.767998 
	C585.808899,75.257233 581.313782,70.994522 574.625366,69.844879 
	C567.801453,68.671959 562.463623,71.935280 558.878174,77.344879 
	C556.328857,81.191193 554.224670,81.275780 550.377014,79.348587 
	C523.538879,65.905983 496.103394,65.624672 468.825531,77.461029 
	C445.759521,87.469772 435.282227,107.299873 430.327637,130.711227 
	C426.517242,148.715973 426.591095,167.107529 425.298859,185.355255 
	C424.236969,200.350769 420.798889,214.216263 412.418945,227.248459 
	C395.483429,253.585876 379.165924,280.387665 367.158752,309.458862 
	C360.188385,326.335114 355.274963,343.760529 356.243866,362.332886 
	C356.840576,373.770111 363.456879,382.634766 373.215668,385.112885 
	C381.618256,387.246582 383.106842,386.260468 383.998138,377.989136 
	C383.998138,377.989136 383.969086,378.017548 384.536011,377.683990 
M440.164337,71.503174 
	C433.044678,78.228706 431.996796,87.044952 437.558014,93.616035 
	C438.503082,94.732727 439.482208,96.311981 441.190033,94.937195 
	C442.466766,93.909485 443.658142,92.571640 442.688171,90.653702 
	C442.315063,89.915993 441.808441,89.246834 441.416412,88.517555 
	C439.578552,85.098541 439.497955,81.778900 442.429291,78.937988 
	C445.526642,75.936157 449.061401,75.931679 452.363861,78.453545 
	C455.900269,81.154060 458.297913,80.038734 460.525452,76.959900 
	C455.585571,69.226700 448.506042,67.187485 440.164337,71.503174 
z"/>
<path fill="#000000" opacity="1.000000" stroke="none" 
	d="
M486.114380,131.713181 
	C491.672638,131.443314 496.553680,132.252457 500.953491,134.946823 
	C505.886566,137.967758 505.980865,142.922943 501.266388,146.201065 
	C494.877472,150.643417 482.140411,150.845352 475.532745,146.608994 
	C469.467285,142.720261 469.674469,137.397552 476.043518,133.978912 
	C479.037292,132.371964 482.271088,131.716019 486.114380,131.713181 
z"/>
<path fill="#000000" opacity="1.000000" stroke="none" 
	d="
M573.671753,78.078140 
	C578.243042,79.426018 580.450928,82.206284 580.041443,86.627602 
	C579.728027,90.011826 574.914368,94.777985 571.515747,94.668541 
	C567.351013,94.534447 566.033203,90.363380 563.570251,87.894447 
	C561.800720,86.120644 563.108948,84.101540 564.338074,82.535446 
	C566.584106,79.673775 569.505127,77.943184 573.671753,78.078140 
z"/>
<path fill="#000000" opacity="1.000000" stroke="none" 
	d="
M467.757996,163.325165 
	C468.213806,166.009705 467.017975,167.049377 465.632263,165.019852 
	C460.851929,158.018341 460.181396,150.112350 462.130768,142.061035 
	C463.909088,134.716034 468.383179,129.335052 475.331360,126.168716 
	C475.652679,126.022285 476.220032,126.415710 477.720398,126.886276 
	C472.569183,131.904465 466.606110,135.713959 465.272339,143.007965 
	C463.996643,149.984268 464.714600,156.559616 467.757996,163.325165 
z"/>
<path fill="#000000" opacity="1.000000" stroke="none" 
	d="
M457.788788,127.162399 
	C455.439453,124.222778 455.162292,121.470634 457.211517,118.696739 
	C458.720856,116.653603 460.819092,115.812637 463.304688,116.387840 
	C466.007751,117.013344 467.485474,118.953606 468.043396,121.554649 
	C468.573303,124.024818 467.814697,126.185783 465.769867,127.686829 
	C463.196442,129.575836 460.570618,129.529816 457.788788,127.162399 
z"/>
<path fill="#000000" opacity="1.000000" stroke="none" 
	d="
M528.771118,128.565582 
	C525.561768,126.076256 524.996460,123.187111 526.433350,119.978127 
	C527.569519,117.440773 529.744141,116.378853 532.496399,116.757591 
	C535.452332,117.164352 537.212463,119.039566 537.883423,121.825981 
	C539.028137,126.579765 535.039978,129.706665 528.771118,128.565582 
z"/>
<path fill="#000000" opacity="1.000000" stroke="none" 
	d="
M376.187134,368.736206 
	C371.370239,370.016968 367.776276,368.732635 365.763519,364.595276 
	C364.003693,360.977814 362.474335,357.103363 365.062775,353.038788 
	C368.270691,354.155945 366.983582,356.548035 367.411438,358.293274 
	C368.192688,361.479767 368.321777,365.327209 372.634613,365.793518 
	C376.860840,366.250458 378.061584,362.734039 379.500793,359.709198 
	C380.902832,356.762421 380.340729,353.132019 382.528931,350.255493 
	C385.940979,355.143890 383.015991,363.704376 376.187134,368.736206 
z"/>
<path fill="#000000" opacity="1.000000" stroke="none" 
	d="
M483.848755,171.476440 
	C495.315491,172.680435 506.112457,172.512756 515.672424,163.530334 
	C515.140320,169.640656 509.292877,173.155746 499.560791,174.932602 
	C489.854034,176.704834 479.796906,174.747696 477.750977,170.604767 
	C479.844299,169.548325 481.558960,171.124298 483.848755,171.476440 
z"/>
<path fill="#000000" opacity="1.000000" stroke="none" 
	d="
M384.009338,377.972046 
	C381.255920,379.861084 378.188995,383.369812 375.050751,379.888000 
	C371.762909,376.240265 375.488739,373.356354 377.907043,370.743103 
	C379.288055,369.250763 380.968292,367.879913 383.095764,368.785736 
	C385.600220,369.852081 385.121979,372.288757 384.953735,374.394958 
	C384.876648,375.359619 384.447632,376.296143 384.073669,377.631470 
	C383.969086,378.017548 383.998138,377.989136 384.009338,377.972046 
z"/>
<path fill="#000000" opacity="1.000000" stroke="none" 
	d="
M490.207336,125.165550 
	C488.026093,125.085663 486.176666,125.710152 484.524780,124.452866 
	C488.611572,120.234756 502.295898,120.968834 507.342987,126.453102 
	C501.158875,125.975258 495.927887,124.668800 490.207336,125.165550 
z"/>
<path fill="#000000" opacity="1.000000" stroke="none" 
	d="
M436.660950,483.204346 
	C440.871399,484.091003 445.239319,482.901123 448.243256,486.700439 
	C441.202637,487.388275 434.383148,485.588135 427.393036,485.727661 
	C429.797577,482.088623 433.166718,483.265106 436.660950,483.204346 
z"/>
<path fill="#000000" opacity="1.000000" stroke="none" 
	d="
M556.493042,491.158875 
	C550.398438,489.602783 544.422058,490.631653 537.588135,489.990692 
	C540.021179,486.908020 542.369385,487.100098 544.556152,486.959076 
	C548.398254,486.711426 552.221313,487.051605 555.923950,488.022980 
	C557.234009,488.366638 560.517029,488.921234 556.493042,491.158875 
z"/>
</svg>